<svg id="dynamic_logo" data-name="dynamic_logo" xmlns="http://www.w3.org/2000/svg" width="128" height="128" viewBox="0 0 512 512"><defs><style>.cls-1{fill:none;}</style></defs><path class="cls-1" d="M512,512H0V0H512ZM256.42,256.65c-6-5-11.29-10.49-17.5-14.44-41.48-26.35-83.16-52.38-124.78-78.51-6.44-4-10.41-4-13,.19s-1,7.49,5.78,11.75q63.27,39.74,126.52,79.48c12.36,7.78,17.15,18.68,14.72,32.78-1.93,11.16-11.66,20.66-24.54,23.38q-48,10.14-96.11,20c-10.25,2.11-20.48,5.39-30.8,5.78-23.31.87-46.67.22-70,.32-4.46,0-6.57-2-6.59-6.22q-.09-20.75,0-41.51c0-4.29,2.29-6.19,6.69-6.09,7.67.19,15.37.42,23-.14,2.92-.21,6.7-1.83,8.28-4.08,2.14-3,.38-6.56-2.48-9.26-7.7-7.28-11.06-16.47-10.92-26.92,0-1.8,1.4-3.57,2.16-5.36,1.23,1.47,3,2.75,3.6,4.45,3.21,9.77,7.35,19,15,26.14,6.58,6.14,13.48,11.92,20.31,17.79,8,6.87,17.19,8.36,27.13,5.62,6.57-1.82,13.12-3.75,19.53-6,24.45-8.77,48.83-17.64,75.4-17.21,4.08.07,6.57-3.47,6.13-7.55-.54-4.93-3.91-6-8.19-6a161.56,161.56,0,0,0-58.51,11c-4.29,1.65-7.34,1.07-10.87-1.68-10.91-8.51-22-16.74-33.11-25-4.41-3.29-8.49-3.21-11.09,0-2.87,3.56-2,7.5,2.66,11,8.49,6.46,17,12.83,25.55,19.27,1.39,1,2.7,2.21,4.83,4-6.2,1.87-11.43,3.34-16.58,5-5.46,1.79-10.07.66-14.24-3.24-4.62-4.33-9.08-8.93-14.18-12.63-9-6.52-14-15.26-16.68-25.8-2.47-9.65-10.79-14.64-20.18-12.59-8.59,1.88-14.15,10.4-12.61,19.82,1.35,8.27,3,16.48,4.67,25.21-2.33,0-5.45,0-8.56,0-12.5.2-20.6,8.35-20.63,20.82,0,13,0,26,0,39,0,14.72,7.73,22.45,22.52,22.46q33,0,66,0a30.29,30.29,0,0,0,5.93-.61c38.24-7.83,76.43-15.92,114.73-23.44,15.58-3.06,30.09-7.4,39.88-21.09.15-.2.61-.16,1.31-.33,7.4,10.34,17.57,16.71,30.18,19.29q46.86,9.6,93.71,19.28c11.55,2.37,23.06,6.09,34.7,6.61,23.45,1,47,.48,70.49.24,12.29-.12,20-8.47,20-20.85,0-13.67,0-27.35,0-41,0-11.85-8.11-20-20-20.35-3.29-.08-6.58,0-9.16,0,1.7-8.83,3.48-17.2,4.89-25.63a17.29,17.29,0,0,0-8.12-17.49c-10.29-5.82-21.81-.71-25,11.1-2.14,8-5.17,15.5-11.52,21.16s-12.69,11.32-19.25,16.71c-2.23,1.82-5.33,4.22-7.71,3.9-7.5-1-14.86-3.14-22.27-4.84l.1-1.63c1.55-1.21,3.08-2.43,4.65-3.62,8.65-6.51,17.37-12.94,25.94-19.57,3.74-2.9,4.29-6.87,1.62-10C417,236,413.58,236,410,238.23c-1.13.71-2.17,1.56-3.23,2.36-10.39,7.82-20.88,15.5-31.08,23.55-3.72,2.93-6.9,3.32-11.33,1.63A160.36,160.36,0,0,0,305.85,255c-5.37,0-7.94,2.39-7.88,6.85s2.83,6.24,8,6.9c13.48,1.71,27.21,2.68,40.29,6.07,17.33,4.48,34.1,11.13,51.19,16.58C408.83,295,419.15,293,428,284.64a137.27,137.27,0,0,1,12.36-10.92c11.08-8.24,17.5-19.36,21.35-32.33.42-1.41,2.14-2.42,3.26-3.62.78,1.42,2.21,2.82,2.25,4.26.35,10.81-2.83,20.38-10.82,28-2.83,2.68-4.31,5.74-2.73,9.35s5.13,4.31,8.86,4.27c7.33-.09,14.66-.05,22,0,5.6,0,7.32,1.47,7.37,6.93q.19,19.75,0,39.52c-.05,5.82-1.7,7.26-7.57,7.26q-34,0-68,0a30.29,30.29,0,0,1-5.92-.7q-32.71-6.66-65.41-13.42c-20.16-4.21-40.37-8.2-60.41-12.95-12.57-3-20.8-14.82-21.18-27.7-.36-12.19,4.8-21,15-27.4Q341.75,215.49,405,175.67c1.69-1.06,4.07-2,4.7-3.53,1-2.48,1.77-5.78.93-8.12-1.14-3.17-4.43-4.38-7.93-3a28.4,28.4,0,0,0-4.38,2.35c-28.22,17.7-56.7,35-84.56,53.27C294.08,229.55,271.94,239,256.42,256.65Zm6.48-153.27c0-5.65.12-11.3,0-16.94-.14-4.89-2.68-7.4-6.91-7.28-4.06.1-6.64,2.9-6.68,7.63q-.12,16.44,0,32.88c0,4.47,3,7.66,6.76,7.73s6.73-3.06,6.84-7.59C263,114.34,262.9,108.85,262.9,103.38ZM249.25,420c0,5.66-.08,11.32,0,17,.08,4.31,2.28,6.86,6.73,7,4.17.14,6.76-2.24,6.83-6.81.15-11.31.09-22.62,0-33.94,0-4.3-2.1-6.92-6.65-7-4.27-.08-6.84,2.53-6.94,7.3C249.16,409,249.25,414.47,249.25,420ZM196.84,146.33c-1-2.29-1.38-4-2.36-5.26-6.57-8.36-13.2-16.69-20-24.9-2.5-3-5.81-4-9.26-1.46-3.08,2.22-4.47,5.66-2.18,8.7,7.09,9.42,14.48,18.63,22.2,27.52,1.18,1.35,5.1,1.38,7.19.57C194.36,150.76,195.48,148,196.84,146.33ZM170.38,409.7c.91-.6,3.17-1.48,4.53-3.11,6.58-7.9,13-16,19.33-24.07,2.57-3.26,2.92-6.83-.2-9.86-2.91-2.82-6.73-3.1-9.33-.05-7.41,8.72-14.63,17.62-21.42,26.83C160.09,403.79,163.72,409.64,170.38,409.7Zm180.15-5.8c-.87-2.48-1-4.11-1.89-5.2-6.79-8.65-13.59-17.29-20.64-25.72-2.6-3.1-6.18-3.29-9.35-.67s-3.35,6.08-1.15,9.39c1.84,2.77,4.07,5.28,6.15,7.88,4.69,5.85,9.12,11.95,14.28,17.36,1.64,1.72,5.42,2.5,7.88,2C347.73,408.55,349.12,405.52,350.53,403.9ZM315.31,146.74c1.87,1.86,3.51,4.88,5.61,5.24a9.73,9.73,0,0,0,7.71-2.61c6.8-7.71,13.1-15.87,19.44-24,2.78-3.56,2.43-7.83-.47-10.27-3.34-2.81-7.1-2.38-10.37,1.61-6.53,8-12.92,16-19.25,24.14C316.93,142.23,316.5,144.07,315.31,146.74Z"/><path d="M256.42,256.65c15.52-17.7,37.66-27.1,57.3-40,27.86-18.26,56.34-35.57,84.56-53.27a28.4,28.4,0,0,1,4.38-2.35c3.5-1.42,6.79-.21,7.93,3,.84,2.34.09,5.64-.93,8.12-.63,1.56-3,2.47-4.7,3.53q-63.25,39.75-126.54,79.45c-10.2,6.39-15.36,15.21-15,27.4.38,12.88,8.61,24.71,21.18,27.7,20,4.75,40.25,8.74,60.41,12.95q32.69,6.81,65.41,13.42a30.29,30.29,0,0,0,5.92.7q34,.07,68,0c5.87,0,7.52-1.44,7.57-7.26q.18-19.76,0-39.52c-.05-5.46-1.77-6.91-7.37-6.93-7.34,0-14.67-.07-22,0-3.73,0-7.24-.58-8.86-4.27s-.1-6.67,2.73-9.35c8-7.59,11.17-17.16,10.82-28,0-1.44-1.47-2.84-2.25-4.26-1.12,1.2-2.84,2.21-3.26,3.62-3.85,13-10.27,24.09-21.35,32.33A137.27,137.27,0,0,0,428,284.64c-8.86,8.37-19.18,10.35-30.53,6.74-17.09-5.45-33.86-12.1-51.19-16.58-13.08-3.39-26.81-4.36-40.29-6.07-5.2-.66-8-2.53-8-6.9s2.51-6.81,7.88-6.85a160.36,160.36,0,0,1,58.53,10.79c4.43,1.69,7.61,1.3,11.33-1.63,10.2-8.05,20.69-15.73,31.08-23.55,1.06-.8,2.1-1.65,3.23-2.36,3.56-2.22,7-2.21,9.83,1.14,2.67,3.15,2.12,7.12-1.62,10-8.57,6.63-17.29,13.06-25.94,19.57-1.57,1.19-3.1,2.41-4.65,3.62l-.1,1.63c7.41,1.7,14.77,3.85,22.27,4.84,2.38.32,5.48-2.08,7.71-3.9,6.56-5.39,12.9-11.06,19.25-16.71s9.38-13.17,11.52-21.16c3.16-11.81,14.68-16.92,25-11.1a17.29,17.29,0,0,1,8.12,17.49c-1.41,8.43-3.19,16.8-4.89,25.63,2.58,0,5.87-.07,9.16,0,11.93.33,20,8.5,20,20.35.05,13.67,0,27.35,0,41,0,12.38-7.73,20.73-20,20.85-23.5.24-47,.8-70.49-.24-11.64-.52-23.15-4.24-34.7-6.61q-46.86-9.6-93.71-19.28c-12.61-2.58-22.78-8.95-30.18-19.29-.7.17-1.16.13-1.31.33-9.79,13.69-24.3,18-39.88,21.09-38.3,7.52-76.49,15.61-114.73,23.44a30.29,30.29,0,0,1-5.93.61q-33,.06-66,0c-14.79,0-22.52-7.74-22.52-22.46,0-13,0-26,0-39,0-12.47,8.13-20.62,20.63-20.82,3.11-.05,6.23,0,8.56,0-1.63-8.73-3.32-16.94-4.67-25.21-1.54-9.42,4-17.94,12.61-19.82,9.39-2.05,17.71,2.94,20.18,12.59,2.68,10.54,7.67,19.28,16.68,25.8,5.1,3.7,9.56,8.3,14.18,12.63,4.17,3.9,8.78,5,14.24,3.24,5.15-1.68,10.38-3.15,16.58-5-2.13-1.76-3.44-2.92-4.83-4-8.51-6.44-17.06-12.81-25.55-19.27-4.63-3.53-5.53-7.47-2.66-11,2.6-3.24,6.68-3.32,11.09,0,11.08,8.28,22.2,16.51,33.11,25,3.53,2.75,6.58,3.33,10.87,1.68a161.56,161.56,0,0,1,58.51-11c4.28,0,7.65,1.09,8.19,6,.44,4.08-2,7.62-6.13,7.55-26.57-.43-50.95,8.44-75.4,17.21-6.41,2.3-13,4.23-19.53,6-9.94,2.74-19.15,1.25-27.13-5.62-6.83-5.87-13.73-11.65-20.31-17.79-7.64-7.12-11.78-16.37-15-26.14-.55-1.7-2.37-3-3.6-4.45-.76,1.79-2.14,3.56-2.16,5.36-.14,10.45,3.22,19.64,10.92,26.92,2.86,2.7,4.62,6.22,2.48,9.26-1.58,2.25-5.36,3.87-8.28,4.08-7.62.56-15.32.33-23,.14-4.4-.1-6.66,1.8-6.69,6.09q-.11,20.76,0,41.51c0,4.23,2.13,6.24,6.59,6.22,23.33-.1,46.69.55,70-.32,10.32-.39,20.55-3.67,30.8-5.78q48.06-9.92,96.11-20c12.88-2.72,22.61-12.22,24.54-23.38,2.43-14.1-2.36-25-14.72-32.78q-63.22-39.8-126.52-79.48c-6.77-4.26-8.38-7.54-5.78-11.75s6.55-4.24,13-.19c41.62,26.13,83.3,52.16,124.78,78.51C245.13,246.16,250.39,251.62,256.42,256.65Z"/><path d="M262.9,103.38c0,5.47.11,11,0,16.43-.11,4.53-3.07,7.66-6.84,7.59s-6.72-3.26-6.76-7.73q-.12-16.44,0-32.88c0-4.73,2.62-7.53,6.68-7.63,4.23-.12,6.77,2.39,6.91,7.28C263,92.08,262.9,97.73,262.9,103.38Z"/><path d="M249.25,420c0-5.49-.09-11,0-16.47.1-4.77,2.67-7.38,6.94-7.3,4.55.09,6.62,2.71,6.65,7,.06,11.32.12,22.63,0,33.94-.07,4.57-2.66,6.95-6.83,6.81-4.45-.16-6.65-2.71-6.73-7C249.17,431.28,249.25,425.62,249.25,420Z"/><path d="M196.84,146.33c-1.36,1.71-2.48,4.43-4.37,5.17-2.09.81-6,.78-7.19-.57-7.72-8.89-15.11-18.1-22.2-27.52-2.29-3-.9-6.48,2.18-8.7,3.45-2.49,6.76-1.57,9.26,1.46,6.76,8.21,13.39,16.54,20,24.9C195.46,142.32,195.84,144,196.84,146.33Z"/><path d="M170.38,409.7c-6.66-.06-10.29-5.91-7.09-10.26,6.79-9.21,14-18.11,21.42-26.83,2.6-3.05,6.42-2.77,9.33.05,3.12,3,2.77,6.6.2,9.86-6.37,8.08-12.75,16.17-19.33,24.07C173.55,408.22,171.29,409.1,170.38,409.7Z"/><path d="M350.53,403.9c-1.41,1.62-2.8,4.65-4.72,5-2.46.5-6.24-.28-7.88-2-5.16-5.41-9.59-11.51-14.28-17.36-2.08-2.6-4.31-5.11-6.15-7.88-2.2-3.31-2-6.75,1.15-9.39s6.75-2.43,9.35.67c7.05,8.43,13.85,17.07,20.64,25.72C349.49,399.79,349.66,401.42,350.53,403.9Z"/><path d="M315.31,146.74c1.19-2.67,1.62-4.51,2.67-5.87,6.33-8.11,12.72-16.18,19.25-24.14,3.27-4,7-4.42,10.37-1.61,2.9,2.44,3.25,6.71.47,10.27-6.34,8.11-12.64,16.27-19.44,24a9.73,9.73,0,0,1-7.71,2.61C318.82,151.62,317.18,148.6,315.31,146.74Z"/></svg>